<svg xmlns="http://www.w3.org/2000/svg" viewBox="3951 253 24 24">
  <defs>
    <style>
      .cls-1 {
        fill: #fff;
        stroke: rgba(0,0,0,0);
      }

      .cls-2 {
        fill: none;
      }
    </style>
  </defs>
  <g id="audiocalls" transform="translate(3870)">
    <path id="back-icon" class="cls-1" d="M3.91-11.07a15.932,15.932,0,0,0,7.16,7.16L13.457-6.3a.931.931,0,0,1,1.117-.254,12.124,12.124,0,0,0,3.859.609,1.06,1.06,0,0,1,.736.3.994.994,0,0,1,.33.762v3.809a1.02,1.02,0,0,1-.33.736,1.02,1.02,0,0,1-.736.33A18.126,18.126,0,0,1,9.166-2.463a18.19,18.19,0,0,1-6.7-6.7A18.126,18.126,0,0,1,0-18.434a1.02,1.02,0,0,1,.33-.736,1.02,1.02,0,0,1,.736-.33H4.875a.994.994,0,0,1,.762.33,1.06,1.06,0,0,1,.3.736,12.124,12.124,0,0,0,.609,3.859A1.039,1.039,0,0,1,6.3-13.457Z" transform="translate(83 274.5)"/>
    <rect id="Rectangle_66" data-name="Rectangle 66" class="cls-2" width="24" height="24" transform="translate(81 253)"/>
  </g>
</svg>
