<svg xmlns="http://www.w3.org/2000/svg" viewBox="3951 363 24 24">
  <defs>
    <style>
      .cls-1 {
        fill: #9f9f9f;
        stroke: rgba(0,0,0,0);
      }

      .cls-2 {
        fill: none;
      }
    </style>
  </defs>
  <g id="cancel" transform="translate(3870)">
    <path id="back-icon" class="cls-1" d="M10.842-20.566a10.447,10.447,0,0,1,7.668,3.174A10.418,10.418,0,0,1,21.684-9.75,10.418,10.418,0,0,1,18.51-2.107a10.447,10.447,0,0,1-7.668,3.174A10.447,10.447,0,0,1,3.174-2.107,10.418,10.418,0,0,1,0-9.75a10.418,10.418,0,0,1,3.174-7.643A10.447,10.447,0,0,1,10.842-20.566ZM16.25-5.84,12.34-9.75l3.91-3.91-1.523-1.523-3.91,3.91-3.859-3.91L5.434-13.66,9.293-9.75,5.434-5.84,6.957-4.316l3.859-3.91,3.91,3.91Z" transform="translate(82 384.566)"/>
    <rect id="Rectangle_68" data-name="Rectangle 68" class="cls-2" width="24" height="24" transform="translate(81 363)"/>
  </g>
</svg>
