<svg xmlns="http://www.w3.org/2000/svg" width="18" height="18" viewBox="0 0 18 18">
  <defs>
    <style>
      .cls-1 {
      fill-rule: evenodd;
      opacity: 0.28;
      }
    </style>
  </defs>
  <path id="home_icon" class="cls-1"
        d="M1144.99,598a0.616,0.616,0,0,0-.3.072l-7.32,4.382a0.661,0.661,0,0,0-.37.6V612a2,2,0,0,0,2,2h4a0.67,0.67,0,0,0,.67-0.669v-4.009a0.661,0.661,0,0,1,.66-0.669h1.34a0.668,0.668,0,0,1,.66.669v4.009a0.67,0.67,0,0,0,.67.669h4a2.006,2.006,0,0,0,2-2V603.05a0.661,0.661,0,0,0-.37-0.6l-7.34-4.383a0.687,0.687,0,0,0-.3-0.071h0Z"
        transform="translate(-1136 -597)"/>
</svg>
