<svg xmlns="http://www.w3.org/2000/svg" viewBox="4460 465 40 40">
  <defs>
    <style>
      .cls-1 {
        fill: #fff;
        stroke: rgba(0,0,0,0);
      }

      .cls-2 {
        fill: none;
      }
    </style>
  </defs>
  <g id="Group_13" data-name="Group 13" transform="translate(4300)">
    <path id="Path_15" data-name="Path 15" class="cls-1" d="M0-15a18.771,18.771,0,0,0-5.742.879v3.867a1.212,1.212,0,0,1-.7,1.172A13.707,13.707,0,0,0-9.785-6.8a1.192,1.192,0,0,1-.879.352,1.192,1.192,0,0,1-.879-.352L-14.648-9.9A1.192,1.192,0,0,1-15-10.781a1.192,1.192,0,0,1,.352-.879A20.51,20.51,0,0,1,0-17.52,20.51,20.51,0,0,1,14.648-11.66a1.192,1.192,0,0,1,.352.879,1.192,1.192,0,0,1-.352.879L11.543-6.8a1.192,1.192,0,0,1-.879.352A1.192,1.192,0,0,1,9.785-6.8a14.431,14.431,0,0,0-3.34-2.285,1.167,1.167,0,0,1-.7-1.113v-3.867A17.7,17.7,0,0,0,0-15Z" transform="translate(180 496.52)"/>
    <rect id="Rectangle_74" data-name="Rectangle 74" class="cls-2" width="40" height="40" transform="translate(160 465)"/>
  </g>
</svg>
