<svg xmlns="http://www.w3.org/2000/svg" viewBox="145.446 37.507 69.354 32.985">
  <defs>
    <style>.a{fill:#2196F3;}.b{fill:#ffc107;}</style>
  </defs>
  <g transform="translate(145.446 37.507)">
    <path class="a"
          d="M149.068,5.117a5.44,5.44,0,1,0-5.413,5.794,5.393,5.393,0,0,0,3.256-1.1v.254a1.1,1.1,0,0,0,2.2,0V5.286A.32.32,0,0,1,149.068,5.117Zm-5.413,3.595a3.256,3.256,0,1,1,3.256-3.256A3.258,3.258,0,0,1,143.655,8.712Z"
          transform="translate(-79.757 0)"/>
    <path class="a"
          d="M116.013,0A5.418,5.418,0,0,0,110.6,5.075v5.2a1.1,1.1,0,0,0,2.2,0V5.455h0a3.256,3.256,0,0,1,6.513,0,1.1,1.1,0,1,0,2.2,0A5.533,5.533,0,0,0,116.013,0Z"
          transform="translate(-63.828 0)"/>
    <path class="a"
          d="M66.168,5.455h0v-.3A5.444,5.444,0,0,0,55.3,5.075v5.244a1.1,1.1,0,1,0,2.2,0V5.455h0a3.256,3.256,0,0,1,6.512,0v4.906a1.1,1.1,0,0,0,2.2,0l-.042-4.906Z"
          transform="translate(-31.914 0)"/>
    <path class="a"
          d="M10.868,1.1a1.1,1.1,0,0,0-2.2,0V5.92h0a3.256,3.256,0,0,1-6.512,0V1.1A1.083,1.083,0,0,0,1.1,0,1.12,1.12,0,0,0,0,1.1V5.92H0v.254a5.455,5.455,0,0,0,5.413,5.117,5.393,5.393,0,0,0,3.256-1.1v3.341h0a3.256,3.256,0,0,1-6.512,0,1.12,1.12,0,0,0-1.1-1.1A1.121,1.121,0,0,0,0,13.575a5.455,5.455,0,0,0,10.911.042V1.1Z"
          transform="translate(0 0)"/>
    <path class="a"
          d="M93.653,1.1a1.1,1.1,0,0,0-2.2,0V5.92h0a3.256,3.256,0,1,1-6.512,0V1.1a1.1,1.1,0,1,0-2.2,0V5.92h0v.254a5.455,5.455,0,0,0,5.413,5.117,5.393,5.393,0,0,0,3.256-1.1v3.341h0a3.256,3.256,0,0,1-6.512,0,1.1,1.1,0,1,0-2.2,0,5.455,5.455,0,0,0,10.911.042V1.1Z"
          transform="translate(-47.727 0)"/>
    <path class="b"
          d="M37.4,24.739c-.169-.3-.381-.55-.592-.888l-.169-.254-.254-.381c-.085-.127-.127-.211-.211-.338l-.042-.042c-.338-.507-.719-1.057-1.057-1.607a7.606,7.606,0,0,1-1.057-3.214c-.085-.761-.169-1.48-.3-2.157v-.127c0-.085-.042-.127-.042-.211a1.831,1.831,0,0,0-.042-.211h0c-1.607-6.851-5.286-6.639-5.751-6.6H27.8a3.256,3.256,0,1,1,0-6.512,3.313,3.313,0,0,1,2.96,1.9,1.083,1.083,0,0,0,1.438.55,1.12,1.12,0,0,0,.55-1.438A5.438,5.438,0,1,0,27.8,10.868a1.235,1.235,0,0,0,.381-.085v.042h-.042c.8-.085,2.537.973,3.468,5.328,0,.085.042.127.085.211l.254,1.776A9.6,9.6,0,0,0,33.3,22.286c.338.55.719,1.142,1.1,1.649l.3.423c.127.169.254.381.381.55l.085.127c.211.3.381.55.55.8a1.1,1.1,0,0,1,.127.3c0,.042-.042.127-.211.3a3.3,3.3,0,0,1-1.226.592,21.524,21.524,0,0,1-5.159.846H26.995a18.01,18.01,0,0,1-5.159-.846,3.3,3.3,0,0,1-1.226-.592,1.2,1.2,0,0,1-.211-.254.714.714,0,0,1,.127-.3c.169-.3.381-.55.55-.8l.085-.127a6.186,6.186,0,0,0,.381-.55l.085-.127c.042-.042.085-.127.127-.169l.042-.085c.381-.55.719-1.1,1.1-1.692a18.968,18.968,0,0,0,1.9-5.582,22.043,22.043,0,0,1,.381-2.5,3.138,3.138,0,0,1,.3-.888,1.078,1.078,0,1,0-1.945-.93,5.036,5.036,0,0,0-.423,1.353,26.072,26.072,0,0,0-.381,2.706,15.5,15.5,0,0,1-1.565,4.652c-.338.55-.677,1.1-1.057,1.607l-.507.507a2.346,2.346,0,0,1-.254.338l-.254.381-.507.761a2.417,2.417,0,0,0,.507,3.341,5.232,5.232,0,0,0,1.988,1.015,16.47,16.47,0,0,0,3.764.761,3.172,3.172,0,0,0,6.343,0,22.745,22.745,0,0,0,3.764-.761,5.232,5.232,0,0,0,1.988-1.015A2.41,2.41,0,0,0,37.4,24.739Zm-9.388,6.09a1,1,0,0,1-.973-.761h1.945A1.041,1.041,0,0,1,28.01,30.829Z"
          transform="translate(-10.46 0)"/>
  </g>
</svg>
