<svg xmlns="http://www.w3.org/2000/svg" width="20" height="29.969" viewBox="0 0 20 29.969">
  <defs>
    <style>
      .cls-1 {
        fill: #fa3435;
        fill-rule: evenodd;
      }
    </style>
  </defs>
  <path id="placeholder-icon" class="cls-1" d="M556.34,276.476l-7.106,15.111a2.49,2.49,0,0,1-2.242,1.387,2.438,2.438,0,0,1-2.226-1.387l-7.123-15.111a8.173,8.173,0,0,1-.645-3.5,9.994,9.994,0,1,1,19.987,0A8.158,8.158,0,0,1,556.34,276.476Zm-9.348-8.492a5,5,0,1,0,5,5A5.005,5.005,0,0,0,546.992,267.984Z" transform="translate(-537 -263)"/>
</svg>
