<svg xmlns="http://www.w3.org/2000/svg" width="18" height="18" viewBox="0 0 18 18">
  <metadata><?xpacket begin="﻿" id="W5M0MpCehiHzreSzNTczkc9d"?>
<x:xmpmeta xmlns:x="adobe:ns:meta/" x:xmptk="Adobe XMP Core 5.6-c138 79.159824, 2016/09/14-01:09:01        ">
   <rdf:RDF xmlns:rdf="http://www.w3.org/1999/02/22-rdf-syntax-ns#">
      <rdf:Description rdf:about=""/>
   </rdf:RDF>
</x:xmpmeta>
                                                                                                    
                                                                                                    
                                                                                                    
                                                                                                    
                                                                                                    
                                                                                                    
                                                                                                    
                                                                                                    
                                                                                                    
                                                                                                    
                                                                                                    
                                                                                                    
                                                                                                    
                                                                                                    
                                                                                                    
                                                                                                    
                                                                                                    
                                                                                                    
                                                                                                    
                                                                                                    
                           
<?xpacket end="w"?></metadata>
<defs>
    <style>
      .cls-1 {
        fill-rule: evenodd;
        opacity: 0.28;
      }
    </style>
  </defs>
  <path id="orders_icon" class="cls-1" d="M1704.44,2424.76h-12.4a1.775,1.775,0,0,0-1.78,1.77v12.41a1.782,1.782,0,0,0,1.78,1.77h12.4a1.773,1.773,0,0,0,1.77-1.77v-12.41a1.767,1.767,0,0,0-1.77-1.77h0Zm-8.86,12.41h-1.78v-1.77h1.78v1.77Zm0-3.55h-1.78v-1.77h1.78v1.77Zm0-3.54h-1.78v-1.78h1.78v1.78Zm7.09,7.09h-6.2v-1.77h6.2v1.77Zm0-3.55h-6.2v-1.77h6.2v1.77Zm0-3.54h-6.2v-1.78h6.2v1.78Zm0,0" transform="translate(-1689.235 -2423.735)"/>
</svg>
