<svg xmlns="http://www.w3.org/2000/svg" xmlns:xlink="http://www.w3.org/1999/xlink" viewBox="33 603 24 24">
  <defs>
    <style>
      .cls-1 {
        clip-path: url(#clip-path);
      }

      .cls-2 {
        fill: #2196f3;
      }
    </style>
    <clipPath id="clip-path">
      <rect id="Rectangle_5" data-name="Rectangle 5" width="24" height="24"/>
    </clipPath>
  </defs>
  <g id="tab1_-_home" data-name="tab1 - home" transform="translate(33 603)">
    <g id="Group_2" data-name="Group 2" class="cls-1">
      <path id="Path_2" data-name="Path 2" class="cls-2" d="M12,4a.367.367,0,0,0-.3.1L4.4,8.5A.51.51,0,0,0,4,9v9a2.006,2.006,0,0,0,2,2h4a.684.684,0,0,0,.7-.7v-4a.684.684,0,0,1,.7-.7h1.3a.684.684,0,0,1,.7.7v4a.684.684,0,0,0,.7.7h4a2.006,2.006,0,0,0,2-2V9.1a.548.548,0,0,0-.4-.6L12.4,4.1A.756.756,0,0,0,12,4Z"/>
    </g>
  </g>
</svg>
