<svg xmlns="http://www.w3.org/2000/svg" xmlns:xlink="http://www.w3.org/1999/xlink" viewBox="303 603 24 24">
  <defs>
    <style>
      .cls-1 {
        clip-path: url(#clip-path);
      }

      .cls-2 {
        fill: #d3d3d3;
      }
    </style>
    <clipPath id="clip-path">
      <rect id="Rectangle_7" data-name="Rectangle 7" width="24" height="24" transform="translate(180)"/>
    </clipPath>
  </defs>
  <g id="tab3_-_profile" data-name="tab3 - profile" transform="translate(123 603)">
    <g id="Group_6" data-name="Group 6" class="cls-1">
      <path id="Path_4" data-name="Path 4" class="cls-2" d="M197.2,15.7l-2.7-1.4a.67.67,0,0,1-.4-.7v-1c.1-.1.1-.2.2-.3a5.306,5.306,0,0,0,.8-1.7,1.2,1.2,0,0,0,.7-1v-1a1.33,1.33,0,0,0-.3-.8V6.3a2.59,2.59,0,0,0-.6-1.9,3.427,3.427,0,0,0-2.8-1,3.3,3.3,0,0,0-2.8,1,2.59,2.59,0,0,0-.6,1.9V7.8a1.136,1.136,0,0,0-.3.8V9.7a1.489,1.489,0,0,0,.4.9,8.2,8.2,0,0,0,1,2.1v.9a1.012,1.012,0,0,1-.4.7l-2.6,1.4a2.645,2.645,0,0,0-1.3,2.3v.9c0,1.4,4.3,1.7,6.6,1.7s6.6-.4,6.6-1.7V18a2.705,2.705,0,0,0-1.5-2.3Zm0,0"/>
    </g>
  </g>
</svg>
