<svg xmlns="http://www.w3.org/2000/svg" viewBox="569.169 119 83.265 73.5"><defs><style>.a,.b{fill:#2196f3;}.b{opacity:0.1;}.c{fill:#ffc107;}</style></defs><g transform="translate(430)"><g transform="translate(154.683 119.025)"><path class="a" d="M132.02,175.64h4.923a.818.818,0,0,1,.818.818v2.9a1.22,1.22,0,0,0,2.44,0v-2.9a3.265,3.265,0,0,0-3.258-3.258H132.02a1.22,1.22,0,1,0,0,2.44Z" transform="translate(-112.028 -148.364)"/><path class="a" d="M216.906,175.64h4.148a1.22,1.22,0,1,0,0-2.44H216.92a1.22,1.22,0,0,0-.014,2.44Z" transform="translate(-184.743 -148.364)"/><path class="a" d="M178.553,250.1H174.42a1.22,1.22,0,0,0,0,2.44h4.133a1.22,1.22,0,1,0,0-2.44Z" transform="translate(-148.342 -214.227)"/><path class="a" d="M56.561,70.978H49.629V57.559a16.48,16.48,0,0,0-7.2-13.62,16.276,16.276,0,0,0-3.2-1.694,16.454,16.454,0,0,0,5.325-10.606,6.031,6.031,0,0,0,.316-10.807c.014-.172-.746-12.2-.746-12.2a7.022,7.022,0,0,0-5.5-6.344L28.417.007a1.108,1.108,0,0,0-.531,0l-10.2,2.3a7.036,7.036,0,0,0-5.5,6.344s-.761,12.027-.746,12.2a6.031,6.031,0,0,0,.316,10.807,16.522,16.522,0,0,0,5.325,10.606,16.689,16.689,0,0,0-3.2,1.694,16.444,16.444,0,0,0-7.2,13.62V70.992H1.22a1.22,1.22,0,0,0,0,2.44H20.753a1.415,1.415,0,0,0,.344.043H35.191a1.416,1.416,0,0,0,.344-.043H56.547a1.227,1.227,0,0,0,.014-2.454ZM44.62,23.688a3.58,3.58,0,0,1,1,2.483,3.618,3.618,0,0,1-1,2.483Zm-32.938,4.98a3.58,3.58,0,0,1-1-2.483,3.618,3.618,0,0,1,1-2.483Zm26.408-24a4.61,4.61,0,0,1,3.6,4.162l.373,4.894c-.9-.2-1.823-.373-2.727-.531l-.23-4.521a8.8,8.8,0,0,0-1.163-4.047ZM36.684,8.805l.2,4.019a69.512,69.512,0,0,0-7.52-.574V2.892L34.5,4.643C35.65,5.03,36.569,6.781,36.684,8.805Zm-17.064,0c.1-2.024,1.019-3.775,2.181-4.162l5.138-1.751v9.372a62.927,62.927,0,0,0-7.52.574Zm-5.009.029a4.61,4.61,0,0,1,3.6-4.162l.144-.029A8.747,8.747,0,0,0,17.194,8.69l-.23,4.521c-.919.158-1.823.33-2.727.531ZM13.864,20.5v-.043l.2-4.205a63.493,63.493,0,0,1,28.173,0l.2,4.205V20.5a1.2,1.2,0,0,1-1.823,1.119,23.743,23.743,0,0,0-24.915,0,1.169,1.169,0,0,1-1.249,0A1.147,1.147,0,0,1,13.864,20.5Zm.244,9.544V24.09a3.589,3.589,0,0,0,2.856-.416,21.29,21.29,0,0,1,22.36,0,3.67,3.67,0,0,0,1.909.545,3.508,3.508,0,0,0,.947-.129v5.956a14.032,14.032,0,0,1-5.942,11.467V38.671A6.052,6.052,0,0,0,30.2,32.629H26.078a6.052,6.052,0,0,0-6.042,6.042v2.842A14.037,14.037,0,0,1,14.108,30.046ZM29.694,44.01V40.724a1.22,1.22,0,0,0-2.44,0v3.33a13.984,13.984,0,0,1-4.779-1.163V38.657a3.62,3.62,0,0,1,3.617-3.617h4.119a3.62,3.62,0,0,1,3.617,3.617v4.234h0A13.917,13.917,0,0,1,29.694,44.01Zm2.253,2.067v4.205a3.8,3.8,0,0,1-7.607,0V46.077a16.478,16.478,0,0,0,7.607,0Zm-16.792,24.9H9.113V65.266h6.042Zm0-8.138H9.113V61.549h6.042Zm.115-3.732H9.113v-1.55a14.029,14.029,0,0,1,6.143-11.611,13.821,13.821,0,0,1,2.612-1.392v8.726a4.1,4.1,0,0,1-1.033,2.713A6.308,6.308,0,0,0,15.27,59.109ZM33.985,70.978H22.317V67.045H33.985Zm0-6.358H22.317V63.156H33.985Zm4.722,6.358h-2.3V61.95a1.219,1.219,0,0,0-1.22-1.22H21.1a1.219,1.219,0,0,0-1.22,1.22v9.027h-2.3V60.329a4.1,4.1,0,0,1,1.033-2.713,6.443,6.443,0,0,0,1.665-4.334V44.527A16.792,16.792,0,0,0,21.9,45.3V50.3a6.243,6.243,0,1,0,12.486,0V45.3c.545-.23,1.091-.488,1.622-.775v8.755a6.443,6.443,0,0,0,1.665,4.334,4.037,4.037,0,0,1,1.048,2.713V70.978Zm8.482,0H41.147V65.266h6.042Zm0-8.138H41.147V61.549h6.042Zm0-3.732H41.032a6.344,6.344,0,0,0-1.55-3.114,4.024,4.024,0,0,1-1.033-2.713V44.556a14.756,14.756,0,0,1,2.612,1.392A14.048,14.048,0,0,1,47.2,57.559v1.55Z"/><circle class="a" cx="1.22" cy="1.22" r="1.22" transform="translate(20.667 28.252)"/><circle class="a" cx="1.22" cy="1.22" r="1.22" transform="translate(33.21 28.252)"/></g><circle class="b" cx="27" cy="27" r="27" transform="translate(168 134)"/><ellipse class="a" cx="6.132" cy="6.132" rx="6.132" ry="6.132" transform="translate(139.169 119)"/><ellipse class="c" cx="6.132" cy="6.132" rx="6.132" ry="6.132" transform="translate(210.169 122)"/></g></svg>