<svg xmlns="http://www.w3.org/2000/svg" viewBox="568 365 83.265 69.8"><defs><style>.a,.b{fill:#2196f3;}.b{opacity:0.1;}.c{fill:#ffc107;}</style></defs><g transform="translate(440.831 73)"><g transform="translate(141.863 294.8)"><path class="a" d="M62.383,64.8H54.967V62.565c0-5.126-1.363-9.07-4.053-11.742a11.346,11.346,0,0,0-3.726-2.472V36.517A6.642,6.642,0,0,0,50.459,26.7a10.556,10.556,0,0,0,.018-2.272,2.887,2.887,0,0,0-1.072-2,4.134,4.134,0,0,0-2.236-.763V18.122c0-6.944-1.8-11.76-5.508-14.705C38.808,1.109,34.9.036,29.41,0h-.273c-5.253.055-9.725,1.472-12.96,4.144C12.088,7.507,10,12.706,10,19.577V54.222a1.413,1.413,0,0,0,.036.291,19.377,19.377,0,0,0-1.527,8.071v2.236H1.091a1.091,1.091,0,0,0,0,2.181H62.383a1.1,1.1,0,0,0,0-2.2ZM43.007,47.423H37.535V44.115a.5.5,0,0,0-.018-.164,15.38,15.38,0,0,0,7.053-5.944c.145-.236.291-.454.418-.691V47.678a9.448,9.448,0,0,0-1.981-.254Zm2-16.2a15.533,15.533,0,0,1-1.145,3.526H36.445a.843.843,0,0,0-.382.073,1.617,1.617,0,0,0-1.181-.509h-1.2a1.6,1.6,0,0,0,0,3.2h1.2a1.658,1.658,0,0,0,1.272-.618,1.591,1.591,0,0,0,.291.036h6.216a13.32,13.32,0,0,1-10.833,6.071h-.2a13.391,13.391,0,0,1-10.87-6.126,16.08,16.08,0,0,1-2.29-5.653V19.213h9.779a1.094,1.094,0,0,0,1.091-1.091v-.782l1.472,1.527a1.075,1.075,0,0,0,.782.345H45.006ZM28.12,48.514V44.661a17.492,17.492,0,0,0,3.417.527h.418a19.237,19.237,0,0,0,3.417-.527v3.854A1.094,1.094,0,0,0,36.463,49.6h2.89a7.645,7.645,0,0,1-15.2,0h2.89a1.09,1.09,0,0,0,1.072-1.091ZM49.332,30.283A4.451,4.451,0,0,1,47.187,34.1V31.082a3.824,3.824,0,0,0,1.963-1.163,1.273,1.273,0,0,0,.145-.182c.018.182.036.364.036.545Zm-1.254-6.126a.6.6,0,0,1,.236.491,5.324,5.324,0,0,1-.8,3.8,1.727,1.727,0,0,1-.345.291v-4.89a1.748,1.748,0,0,1,.909.309Zm-35.9-4.6C12.179,4.508,22.867,2.2,29.3,2.181c7.58.018,15.287,1.872,15.687,14.851H32.064l-3.017-3.163a1.1,1.1,0,0,0-1.89.763V17.05H17.377a1.094,1.094,0,0,0-1.091,1.091v13.2a.5.5,0,0,0,.018.164,17.919,17.919,0,0,0,2.6,6.526,15.274,15.274,0,0,0,7.053,5.944.5.5,0,0,0-.018.164v3.308H20.485a11.971,11.971,0,0,0-7.925,3.417c-.127.127-.254.273-.382.4ZM10.688,62.565c0-12.815,9.379-12.978,9.779-12.978H21.94a9.835,9.835,0,0,0,19.595,0h1.491a8.732,8.732,0,0,1,2.654.509c.036.018.091.036.127.055a9.517,9.517,0,0,1,3.581,2.236c2.272,2.254,3.417,5.671,3.417,10.2v2.236H10.688Zm0,0"/><path class="a" d="M127.417,127.709a1.309,1.309,0,1,1-1.309-1.309,1.3,1.3,0,0,1,1.309,1.309Zm0,0" transform="translate(-102.115 -103.424)"/><path class="a" d="M212.517,127.709a1.309,1.309,0,1,1-1.309-1.309,1.3,1.3,0,0,1,1.309,1.309Zm0,0" transform="translate(-171.747 -103.424)"/><path class="a" d="M162.991,154.7a1.094,1.094,0,0,0-1.091,1.091,2.11,2.11,0,0,0,2.109,2.109h.382a2.11,2.11,0,0,0,2.109-2.109,1.092,1.092,0,0,0-2.181-.073h-.254a1.064,1.064,0,0,0-1.072-1.018Zm0,0" transform="translate(-132.472 -126.58)"/><path class="a" d="M139.826,188.082a6.018,6.018,0,0,1-1.981-1.036,1.088,1.088,0,0,0-1.454,1.618,8.192,8.192,0,0,0,2.727,1.472,1.142,1.142,0,0,0,.345.055,1.109,1.109,0,0,0,1.036-.745,1.062,1.062,0,0,0-.673-1.363Zm0,0" transform="translate(-111.306 -152.819)"/><path class="a" d="M237.635,327.6h-3.345a1.091,1.091,0,0,0,0,2.181h3.345a1.094,1.094,0,0,0,1.091-1.091,1.082,1.082,0,0,0-1.091-1.091Zm0,0" transform="translate(-190.812 -268.053)"/></g><circle class="b" cx="27" cy="27" r="27" transform="translate(156 307)"/><ellipse class="a" cx="6.132" cy="6.132" rx="6.132" ry="6.132" transform="translate(127.169 292)"/><ellipse class="c" cx="6.132" cy="6.132" rx="6.132" ry="6.132" transform="translate(198.169 295)"/></g></svg>